# xmcd
#
# Track frame offsets:
#	150
#	24761
#	34184
#	62168
#	80917
#	88489
#	110831
#	121391
#	137595
#	151820
#	164736
#	208782
#	229445
#	290017
#
# Disc length: 4149 seconds
#
# Revision: 1
# Processed by: cddbd v1.5.2PL0 Copyright (c) Steve Scherf et al.
# Submitted via: audiograbber 1.83.01
#
DISCID=d310330e
DTITLE=Grateful Dead - 78-01-07 Golden Hall, Community Concourse, San Diego CA
DYEAR=1900
DGENRE=
TTITLE0=New Minglewood Blues
TTITLE1=Tuning
TTITLE2=Cassidy
TTITLE3=Sunrise
TTITLE4=Tuning
TTITLE5=Passenger
TTITLE6=Tuning
TTITLE7=Mexicali Blues
TTITLE8=Me and My Uncle
TTITLE9=Tuning
TTITLE10=Looks Like Rain
TTITLE11=El Paso
TTITLE12=Let It Grow
TTITLE13=Promised Land
EXTD=
EXTT0=
EXTT1=
EXTT2=
EXTT3=
EXTT4=
EXTT5=
EXTT6=
EXTT7=
EXTT8=
EXTT9=
EXTT10=
EXTT11=
EXTT12=
EXTT13=
PLAYORDER=
